<mxfile host="app.diagrams.net" modified="2023-02-23T12:34:32.086Z" agent="5.0 (Windows NT 10.0; Win64; x64) AppleWebKit/537.36 (KHTML, like Gecko) Chrome/110.0.0.0 Safari/537.36" etag="wvB4g0KaODiX6aiXlKyq" version="20.8.20" type="github">
  <diagram name="Strona-1" id="31qGQz1DrWz9XuLw_kBV">
    <mxGraphModel dx="1434" dy="796" grid="1" gridSize="10" guides="1" tooltips="1" connect="1" arrows="1" fold="1" page="1" pageScale="1" pageWidth="827" pageHeight="1169" background="none" math="0" shadow="0">
      <root>
        <mxCell id="0" />
        <mxCell id="1" parent="0" />
        <mxCell id="LXjFf2Lf1tiKYIsnBULI-1" value="Stop" style="ellipse;whiteSpace=wrap;html=1;fontSize=24;" vertex="1" parent="1">
          <mxGeometry x="360" y="545" width="120" height="80" as="geometry" />
        </mxCell>
        <mxCell id="LXjFf2Lf1tiKYIsnBULI-4" style="edgeStyle=orthogonalEdgeStyle;rounded=0;orthogonalLoop=1;jettySize=auto;html=1;entryX=0.5;entryY=0;entryDx=0;entryDy=0;fontSize=24;" edge="1" parent="1" source="LXjFf2Lf1tiKYIsnBULI-2" target="LXjFf2Lf1tiKYIsnBULI-3">
          <mxGeometry relative="1" as="geometry" />
        </mxCell>
        <mxCell id="LXjFf2Lf1tiKYIsnBULI-2" value="Start" style="ellipse;whiteSpace=wrap;html=1;fontSize=24;" vertex="1" parent="1">
          <mxGeometry x="354" y="30" width="120" height="80" as="geometry" />
        </mxCell>
        <mxCell id="LXjFf2Lf1tiKYIsnBULI-8" style="edgeStyle=orthogonalEdgeStyle;rounded=0;orthogonalLoop=1;jettySize=auto;html=1;entryX=0.5;entryY=0;entryDx=0;entryDy=0;fontSize=24;" edge="1" parent="1" source="LXjFf2Lf1tiKYIsnBULI-3" target="LXjFf2Lf1tiKYIsnBULI-6">
          <mxGeometry relative="1" as="geometry" />
        </mxCell>
        <mxCell id="LXjFf2Lf1tiKYIsnBULI-3" value="i=0&lt;br&gt;suma=0" style="rounded=0;whiteSpace=wrap;html=1;fontSize=24;" vertex="1" parent="1">
          <mxGeometry x="354" y="190" width="120" height="60" as="geometry" />
        </mxCell>
        <mxCell id="LXjFf2Lf1tiKYIsnBULI-9" style="edgeStyle=orthogonalEdgeStyle;rounded=0;orthogonalLoop=1;jettySize=auto;html=1;entryX=1;entryY=0.5;entryDx=0;entryDy=0;fontSize=24;" edge="1" parent="1" source="LXjFf2Lf1tiKYIsnBULI-6" target="LXjFf2Lf1tiKYIsnBULI-7">
          <mxGeometry relative="1" as="geometry" />
        </mxCell>
        <mxCell id="LXjFf2Lf1tiKYIsnBULI-14" style="edgeStyle=orthogonalEdgeStyle;rounded=0;orthogonalLoop=1;jettySize=auto;html=1;fontSize=24;entryX=0;entryY=0.5;entryDx=0;entryDy=0;" edge="1" parent="1" source="LXjFf2Lf1tiKYIsnBULI-6" target="LXjFf2Lf1tiKYIsnBULI-19">
          <mxGeometry relative="1" as="geometry">
            <mxPoint x="534" y="370" as="targetPoint" />
          </mxGeometry>
        </mxCell>
        <mxCell id="LXjFf2Lf1tiKYIsnBULI-6" value="i&amp;lt;a dł." style="rhombus;whiteSpace=wrap;html=1;fontSize=24;" vertex="1" parent="1">
          <mxGeometry x="374" y="330" width="80" height="80" as="geometry" />
        </mxCell>
        <mxCell id="LXjFf2Lf1tiKYIsnBULI-10" style="edgeStyle=orthogonalEdgeStyle;rounded=0;orthogonalLoop=1;jettySize=auto;html=1;fontSize=24;entryX=0.5;entryY=0;entryDx=0;entryDy=0;" edge="1" parent="1" source="LXjFf2Lf1tiKYIsnBULI-7" target="LXjFf2Lf1tiKYIsnBULI-6">
          <mxGeometry relative="1" as="geometry">
            <mxPoint x="410" y="260" as="targetPoint" />
            <Array as="points">
              <mxPoint x="280" y="260" />
              <mxPoint x="414" y="260" />
            </Array>
          </mxGeometry>
        </mxCell>
        <mxCell id="LXjFf2Lf1tiKYIsnBULI-7" value="suma=a[i]&lt;br&gt;i=i+1" style="rounded=0;whiteSpace=wrap;html=1;fontSize=24;" vertex="1" parent="1">
          <mxGeometry x="160" y="340" width="120" height="60" as="geometry" />
        </mxCell>
        <mxCell id="LXjFf2Lf1tiKYIsnBULI-11" value="Tak" style="text;html=1;strokeColor=none;fillColor=none;align=center;verticalAlign=middle;whiteSpace=wrap;rounded=0;fontSize=24;" vertex="1" parent="1">
          <mxGeometry x="300" y="330" width="60" height="30" as="geometry" />
        </mxCell>
        <mxCell id="LXjFf2Lf1tiKYIsnBULI-12" value="Nie" style="text;html=1;strokeColor=none;fillColor=none;align=center;verticalAlign=middle;whiteSpace=wrap;rounded=0;fontSize=24;" vertex="1" parent="1">
          <mxGeometry x="474" y="330" width="60" height="30" as="geometry" />
        </mxCell>
        <mxCell id="LXjFf2Lf1tiKYIsnBULI-21" style="edgeStyle=orthogonalEdgeStyle;rounded=0;orthogonalLoop=1;jettySize=auto;html=1;exitX=0.5;exitY=1;exitDx=0;exitDy=0;entryX=1;entryY=0.5;entryDx=0;entryDy=0;fontSize=24;" edge="1" parent="1" source="LXjFf2Lf1tiKYIsnBULI-19" target="LXjFf2Lf1tiKYIsnBULI-1">
          <mxGeometry relative="1" as="geometry" />
        </mxCell>
        <mxCell id="LXjFf2Lf1tiKYIsnBULI-19" value="Wyświetl suma" style="rounded=0;whiteSpace=wrap;html=1;fontSize=24;" vertex="1" parent="1">
          <mxGeometry x="540" y="340" width="120" height="60" as="geometry" />
        </mxCell>
      </root>
    </mxGraphModel>
  </diagram>
</mxfile>
